<svg xmlns="http://www.w3.org/2000/svg" xmlns:xlink="http://www.w3.org/1999/xlink" width="1080" zoomAndPan="magnify" viewBox="0 0 810 809.999993" height="1080" preserveAspectRatio="xMidYMid meet" version="1.0"><path fill="#b4d2f3" d="M -67.679688 -62.695312 C 250.355469 -62.695312 568.394531 -62.695312 896.070312 -62.695312 C 896.070312 255.34375 896.070312 573.382812 896.070312 901.054688 C 578.03125 901.054688 259.992188 901.054688 -67.679688 901.054688 C -67.679688 583.019531 -67.679688 264.980469 -67.679688 -62.695312 Z M -67.679688 -62.695312 " fill-opacity="1" fill-rule="nonzero"/><path fill="#fbfbfb" d="M -67.679688 -62.695312 C 250.355469 -62.695312 568.394531 -62.695312 896.070312 -62.695312 C 896.070312 255.34375 896.070312 573.382812 896.070312 901.054688 C 578.03125 901.054688 259.992188 901.054688 -67.679688 901.054688 C -67.679688 583.019531 -67.679688 264.980469 -67.679688 -62.695312 Z M 85.773438 102.933594 C 46.722656 145.726562 43.039062 202.207031 43.144531 257.238281 C 43.148438 261.703125 43.144531 266.167969 43.140625 270.636719 C 43.136719 279.347656 43.140625 288.058594 43.152344 296.769531 C 43.160156 306.949219 43.160156 317.128906 43.160156 327.308594 C 43.160156 345.496094 43.167969 363.679688 43.183594 381.867188 C 43.195312 399.445312 43.203125 417.023438 43.203125 434.605469 C 43.203125 435.6875 43.203125 436.769531 43.203125 437.886719 C 43.203125 438.964844 43.203125 440.046875 43.203125 441.160156 C 43.199219 461.269531 43.207031 481.375 43.214844 501.484375 C 43.21875 508.550781 43.21875 515.621094 43.21875 522.6875 C 43.21875 531.320312 43.222656 539.957031 43.230469 548.589844 C 43.238281 552.980469 43.238281 557.375 43.238281 561.765625 C 42.695312 635.882812 42.695312 635.882812 65.964844 705.292969 C 66.484375 706.28125 67.007812 707.265625 67.542969 708.285156 C 71.867188 716.089844 77.261719 722.890625 82.90625 729.765625 C 83.449219 730.445312 83.996094 731.128906 84.558594 731.832031 C 87.425781 735.324219 90.589844 738.269531 94.039062 741.183594 C 95.425781 742.375 96.773438 743.609375 98.09375 744.875 C 130.097656 775.414062 177.058594 783.578125 219.660156 783.535156 C 221.40625 783.539062 223.148438 783.539062 224.894531 783.542969 C 229.671875 783.550781 234.453125 783.546875 239.230469 783.546875 C 244.390625 783.546875 249.550781 783.550781 254.710938 783.558594 C 264.816406 783.566406 274.921875 783.566406 285.027344 783.566406 C 293.25 783.570312 301.46875 783.570312 309.6875 783.574219 C 329.222656 783.582031 348.753906 783.585938 368.289062 783.585938 C 368.914062 783.585938 369.535156 783.585938 370.179688 783.585938 C 373.34375 783.585938 376.507812 783.585938 379.667969 783.585938 C 380.613281 783.585938 380.613281 783.585938 381.574219 783.585938 C 382.84375 783.585938 384.113281 783.585938 385.382812 783.585938 C 405.128906 783.585938 424.878906 783.589844 444.625 783.605469 C 466.835938 783.617188 489.050781 783.628906 511.261719 783.625 C 523.011719 783.625 534.765625 783.628906 546.515625 783.636719 C 556.523438 783.648438 566.53125 783.648438 576.539062 783.644531 C 581.636719 783.640625 586.738281 783.640625 591.835938 783.648438 C 596.519531 783.65625 601.199219 783.652344 605.882812 783.644531 C 607.5625 783.644531 609.242188 783.644531 610.921875 783.652344 C 626.253906 783.695312 641.722656 782.894531 656.777344 779.824219 C 657.589844 779.660156 658.398438 779.5 659.234375 779.332031 C 699.539062 771.015625 734.539062 747.769531 757.785156 713.734375 C 766.78125 699.761719 773.210938 684.621094 777.480469 668.589844 C 777.664062 667.90625 777.847656 667.222656 778.035156 666.519531 C 786.199219 634.929688 785.15625 601.054688 785.148438 568.667969 C 785.148438 564.226562 785.152344 559.78125 785.15625 555.335938 C 785.164062 546.65625 785.167969 537.976562 785.167969 529.292969 C 785.167969 522.222656 785.171875 515.152344 785.175781 508.082031 C 785.183594 487.960938 785.1875 467.839844 785.1875 447.714844 C 785.1875 446.636719 785.1875 445.554688 785.1875 444.4375 C 785.1875 443.355469 785.1875 442.273438 785.1875 441.160156 C 785.1875 423.640625 785.195312 406.125 785.207031 388.609375 C 785.222656 370.550781 785.226562 352.492188 785.226562 334.433594 C 785.226562 324.324219 785.230469 314.214844 785.238281 304.105469 C 785.25 295.492188 785.25 286.882812 785.242188 278.269531 C 785.242188 273.890625 785.242188 269.515625 785.25 265.136719 C 785.277344 248.171875 785.09375 231.257812 784.160156 214.3125 C 784.121094 213.613281 784.085938 212.917969 784.046875 212.199219 C 783.375 200.082031 781.988281 188.21875 779.363281 176.359375 C 779.175781 175.5 778.988281 174.640625 778.792969 173.757812 C 772.964844 148.234375 761.597656 124.007812 743.601562 104.832031 C 743.070312 104.265625 742.542969 103.695312 741.996094 103.109375 C 733.839844 94.414062 725.285156 86.972656 715.367188 80.363281 C 714.832031 79.996094 714.300781 79.632812 713.753906 79.253906 C 679.609375 56.007812 636.703125 52.902344 596.660156 52.941406 C 595.023438 52.941406 593.386719 52.9375 591.75 52.9375 C 587.308594 52.929688 582.871094 52.929688 578.429688 52.933594 C 573.617188 52.933594 568.804688 52.925781 563.996094 52.921875 C 554.585938 52.914062 545.179688 52.914062 535.773438 52.910156 C 528.117188 52.910156 520.457031 52.910156 512.800781 52.90625 C 491.027344 52.898438 469.253906 52.894531 447.484375 52.894531 C 445.726562 52.894531 445.726562 52.894531 443.933594 52.894531 C 442.761719 52.894531 441.589844 52.894531 440.378906 52.894531 C 421.40625 52.894531 402.429688 52.886719 383.453125 52.871094 C 363.910156 52.859375 344.363281 52.851562 324.820312 52.855469 C 313.871094 52.855469 302.921875 52.851562 291.976562 52.839844 C 282.648438 52.832031 273.320312 52.832031 263.996094 52.835938 C 259.25 52.839844 254.507812 52.839844 249.761719 52.832031 C 188.761719 52.730469 130.820312 57.253906 85.773438 102.933594 Z M 85.773438 102.933594 " fill-opacity="1" fill-rule="nonzero"/><path fill="#f8fafc" d="M 213.074219 208.71875 C 214.503906 208.714844 215.929688 208.707031 217.359375 208.699219 C 221.253906 208.683594 225.148438 208.695312 229.042969 208.714844 C 233.253906 208.730469 237.464844 208.714844 241.675781 208.707031 C 249.914062 208.695312 258.152344 208.703125 266.390625 208.726562 C 275.988281 208.746094 285.585938 208.746094 295.1875 208.742188 C 312.316406 208.738281 329.445312 208.757812 346.578125 208.792969 C 363.1875 208.824219 379.800781 208.835938 396.410156 208.832031 C 414.515625 208.824219 432.617188 208.828125 450.722656 208.84375 C 452.160156 208.847656 452.160156 208.847656 453.625 208.847656 C 455.546875 208.851562 457.472656 208.851562 459.394531 208.855469 C 466.082031 208.859375 472.769531 208.859375 479.457031 208.859375 C 487.605469 208.859375 495.757812 208.867188 503.910156 208.890625 C 508.066406 208.902344 512.222656 208.90625 516.378906 208.902344 C 520.1875 208.898438 523.996094 208.90625 527.804688 208.925781 C 529.175781 208.929688 530.550781 208.929688 531.925781 208.921875 C 544.496094 208.875 553.449219 210.464844 562.636719 219.339844 C 569.34375 226.558594 569.898438 234.019531 569.84375 243.492188 C 569.847656 244.648438 569.851562 245.808594 569.859375 247 C 569.867188 250.195312 569.863281 253.394531 569.855469 256.589844 C 569.847656 260.042969 569.859375 263.496094 569.867188 266.949219 C 569.878906 273.710938 569.875 280.46875 569.867188 287.230469 C 569.859375 292.722656 569.859375 298.21875 569.863281 303.714844 C 569.863281 304.496094 569.863281 305.28125 569.863281 306.085938 C 569.867188 307.675781 569.867188 309.265625 569.867188 310.859375 C 569.875 325.761719 569.867188 340.667969 569.851562 355.574219 C 569.839844 368.355469 569.839844 381.136719 569.855469 393.917969 C 569.867188 408.769531 569.875 423.621094 569.867188 438.472656 C 569.863281 440.058594 569.863281 441.644531 569.863281 443.230469 C 569.863281 444.007812 569.863281 444.789062 569.863281 445.589844 C 569.859375 451.078125 569.863281 456.5625 569.871094 462.050781 C 569.878906 468.738281 569.875 475.429688 569.859375 482.117188 C 569.855469 485.53125 569.851562 488.941406 569.859375 492.351562 C 569.871094 496.054688 569.859375 499.753906 569.84375 503.457031 C 569.851562 504.53125 569.855469 505.601562 569.863281 506.707031 C 569.789062 517.023438 567.625 523.472656 560.453125 530.957031 C 553.859375 537.089844 547.003906 539.878906 537.894531 539.890625 C 536.683594 539.898438 535.472656 539.902344 534.226562 539.910156 C 532.894531 539.90625 531.5625 539.90625 530.230469 539.902344 C 528.808594 539.90625 527.386719 539.910156 525.960938 539.914062 C 522.054688 539.925781 518.152344 539.925781 514.246094 539.921875 C 510.03125 539.921875 505.816406 539.933594 501.601562 539.941406 C 493.347656 539.957031 485.09375 539.964844 476.839844 539.964844 C 470.128906 539.964844 463.421875 539.96875 456.710938 539.976562 C 437.683594 539.992188 418.65625 540 399.628906 540 C 398.601562 540 397.578125 540 396.519531 540 C 395.492188 540 394.46875 540 393.410156 540 C 376.765625 539.996094 360.125 540.015625 343.484375 540.042969 C 326.394531 540.070312 309.300781 540.082031 292.210938 540.082031 C 282.617188 540.078125 273.023438 540.085938 263.429688 540.105469 C 255.261719 540.121094 247.09375 540.125 238.925781 540.113281 C 234.757812 540.109375 230.59375 540.109375 226.425781 540.125 C 222.609375 540.140625 218.792969 540.136719 214.976562 540.121094 C 213.597656 540.117188 212.21875 540.121094 210.84375 540.128906 C 198.761719 540.214844 189.59375 537.878906 180.785156 529.296875 C 174.699219 521.625 173.917969 514.253906 173.941406 504.714844 C 173.933594 503.554688 173.929688 502.398438 173.925781 501.203125 C 173.914062 497.992188 173.910156 494.785156 173.910156 491.574219 C 173.910156 488.109375 173.894531 484.644531 173.886719 481.179688 C 173.863281 473.609375 173.855469 466.035156 173.851562 458.464844 C 173.847656 453.734375 173.84375 449.003906 173.835938 444.273438 C 173.816406 431.171875 173.800781 418.070312 173.800781 404.96875 C 173.800781 404.128906 173.796875 403.292969 173.796875 402.425781 C 173.796875 400.730469 173.796875 399.03125 173.796875 397.332031 C 173.796875 396.488281 173.796875 395.644531 173.796875 394.773438 C 173.796875 393.507812 173.796875 393.507812 173.796875 392.214844 C 173.792969 378.535156 173.769531 364.855469 173.734375 351.175781 C 173.695312 337.121094 173.679688 323.066406 173.679688 309.011719 C 173.675781 301.125 173.667969 293.238281 173.640625 285.351562 C 173.621094 278.632812 173.613281 271.917969 173.625 265.203125 C 173.632812 261.777344 173.632812 258.351562 173.609375 254.929688 C 173.589844 251.210938 173.601562 247.492188 173.617188 243.773438 C 173.605469 242.699219 173.59375 241.625 173.582031 240.515625 C 173.675781 231.613281 176.371094 224.355469 182.726562 217.949219 C 191.71875 209.789062 201.324219 208.605469 213.074219 208.71875 Z M 213.074219 208.71875 " fill-opacity="1" fill-rule="nonzero"/><path fill="#193769" d="M 200.105469 186.585938 C 200.714844 186.582031 201.320312 186.578125 201.945312 186.578125 C 203.984375 186.570312 206.019531 186.570312 208.058594 186.570312 C 209.53125 186.566406 211.007812 186.5625 212.480469 186.558594 C 216.535156 186.546875 220.589844 186.539062 224.644531 186.535156 C 229.015625 186.53125 233.386719 186.519531 237.757812 186.507812 C 248.320312 186.484375 258.878906 186.472656 269.4375 186.460938 C 272.421875 186.457031 275.402344 186.453125 278.386719 186.449219 C 296.914062 186.425781 315.445312 186.40625 333.972656 186.394531 C 338.265625 186.390625 342.558594 186.386719 346.847656 186.382812 C 347.914062 186.382812 348.980469 186.382812 350.078125 186.382812 C 367.351562 186.371094 384.625 186.339844 401.898438 186.300781 C 419.636719 186.261719 437.375 186.238281 455.113281 186.234375 C 465.070312 186.230469 475.027344 186.21875 484.988281 186.1875 C 493.46875 186.160156 501.949219 186.152344 510.429688 186.160156 C 514.753906 186.167969 519.078125 186.164062 523.402344 186.140625 C 527.371094 186.121094 531.335938 186.121094 535.300781 186.136719 C 536.726562 186.140625 538.15625 186.136719 539.585938 186.121094 C 552.488281 186 562.949219 189.179688 573.25 197.066406 C 573.828125 197.488281 574.40625 197.914062 575 198.351562 C 585.511719 206.605469 591.390625 219.777344 593.015625 232.832031 C 593.226562 237.894531 593.195312 242.941406 593.132812 248.007812 C 593.121094 249.371094 593.113281 250.734375 593.105469 252.09375 C 593.085938 255.398438 593.054688 258.703125 593.015625 262.007812 C 594.859375 261.984375 594.859375 261.984375 596.738281 261.960938 C 601.339844 261.910156 605.941406 261.878906 610.539062 261.851562 C 612.523438 261.835938 614.507812 261.820312 616.492188 261.792969 C 619.359375 261.757812 622.222656 261.742188 625.089844 261.730469 C 625.964844 261.714844 626.835938 261.703125 627.738281 261.6875 C 641.933594 261.683594 654.777344 267.351562 664.96875 277.160156 C 675.183594 288.789062 678.164062 301.847656 678.078125 317.074219 C 678.085938 318.921875 678.085938 318.921875 678.089844 320.808594 C 678.101562 324.195312 678.097656 327.578125 678.089844 330.964844 C 678.082031 334.632812 678.089844 338.296875 678.097656 341.960938 C 678.113281 349.125 678.109375 356.292969 678.101562 363.460938 C 678.09375 369.285156 678.09375 375.113281 678.097656 380.941406 C 678.097656 381.773438 678.097656 382.601562 678.097656 383.460938 C 678.097656 385.148438 678.101562 386.835938 678.101562 388.523438 C 678.109375 404.339844 678.101562 420.152344 678.085938 435.964844 C 678.070312 449.519531 678.074219 463.070312 678.085938 476.625 C 678.101562 492.382812 678.109375 508.144531 678.101562 523.902344 C 678.097656 525.585938 678.097656 527.265625 678.097656 528.949219 C 678.097656 529.777344 678.097656 530.605469 678.09375 531.457031 C 678.09375 537.273438 678.097656 543.089844 678.105469 548.90625 C 678.113281 556 678.109375 563.09375 678.09375 570.1875 C 678.085938 573.800781 678.085938 577.417969 678.09375 581.035156 C 678.105469 584.960938 678.089844 588.886719 678.078125 592.816406 C 678.085938 594.511719 678.085938 594.511719 678.097656 596.242188 C 677.988281 612.152344 672.859375 625.570312 661.648438 636.871094 C 652.140625 645.644531 640.390625 650.8125 627.414062 650.832031 C 626.179688 650.835938 624.945312 650.839844 623.671875 650.847656 C 622.304688 650.847656 620.933594 650.84375 619.566406 650.84375 C 618.113281 650.847656 616.65625 650.851562 615.203125 650.855469 C 611.199219 650.867188 607.199219 650.867188 603.199219 650.871094 C 598.886719 650.875 594.570312 650.882812 590.257812 650.890625 C 579.839844 650.910156 569.417969 650.921875 559 650.929688 C 554.089844 650.933594 549.183594 650.9375 544.273438 650.941406 C 527.953125 650.957031 511.632812 650.972656 495.3125 650.980469 C 491.078125 650.980469 486.84375 650.984375 482.609375 650.984375 C 481.03125 650.984375 481.03125 650.984375 479.417969 650.984375 C 462.375 650.992188 445.332031 651.019531 428.285156 651.046875 C 410.78125 651.078125 393.277344 651.097656 375.773438 651.097656 C 365.945312 651.101562 356.121094 651.109375 346.292969 651.132812 C 337.925781 651.152344 329.554688 651.160156 321.1875 651.152344 C 316.917969 651.148438 312.652344 651.148438 308.382812 651.167969 C 304.472656 651.183594 300.558594 651.183594 296.644531 651.167969 C 295.234375 651.167969 293.828125 651.171875 292.417969 651.183594 C 276.175781 651.304688 263.242188 646.664062 251.222656 635.578125 C 243.636719 627.640625 237.121094 615.9375 237.148438 604.742188 C 237.148438 603.355469 237.148438 603.355469 237.148438 601.945312 C 237.152344 600.949219 237.160156 599.957031 237.164062 598.933594 C 237.164062 597.914062 237.167969 596.894531 237.167969 595.84375 C 237.171875 592.582031 237.183594 589.320312 237.195312 586.0625 C 237.203125 583.851562 237.207031 581.644531 237.210938 579.433594 C 237.21875 574.015625 237.234375 568.597656 237.253906 563.179688 C 236.132812 563.199219 235.007812 563.21875 233.851562 563.238281 C 229.613281 563.308594 225.378906 563.351562 221.140625 563.386719 C 219.320312 563.40625 217.5 563.429688 215.679688 563.460938 C 196.007812 563.808594 180.074219 560.992188 165.265625 546.902344 C 154.355469 535.140625 150.371094 521.035156 150.421875 505.363281 C 150.417969 504.195312 150.414062 503.027344 150.414062 501.828125 C 150.402344 498.601562 150.40625 495.375 150.410156 492.152344 C 150.410156 488.667969 150.402344 485.183594 150.394531 481.699219 C 150.382812 474.878906 150.382812 468.054688 150.382812 461.234375 C 150.386719 455.691406 150.382812 450.144531 150.378906 444.597656 C 150.378906 443.808594 150.378906 443.019531 150.378906 442.203125 C 150.378906 440.597656 150.375 438.992188 150.375 437.386719 C 150.363281 422.34375 150.367188 407.296875 150.371094 392.25 C 150.378906 378.496094 150.367188 364.742188 150.347656 350.992188 C 150.332031 336.855469 150.324219 322.722656 150.328125 308.589844 C 150.328125 300.660156 150.324219 292.730469 150.3125 284.800781 C 150.300781 278.046875 150.300781 271.296875 150.3125 264.546875 C 150.316406 261.101562 150.316406 257.660156 150.304688 254.21875 C 150.292969 250.480469 150.304688 246.742188 150.316406 243.003906 C 150.308594 241.925781 150.300781 240.847656 150.296875 239.738281 C 150.398438 224.433594 156 211.386719 166.734375 200.546875 C 176.0625 191.953125 187.367188 186.609375 200.105469 186.585938 Z M 180.820312 219.871094 C 175.109375 227.644531 173.507812 234.179688 173.605469 243.75 C 173.597656 244.910156 173.59375 246.074219 173.585938 247.269531 C 173.574219 250.472656 173.578125 253.671875 173.597656 256.875 C 173.609375 260.335938 173.59375 263.796875 173.582031 267.257812 C 173.566406 274.03125 173.574219 280.804688 173.589844 287.578125 C 173.605469 293.082031 173.609375 298.589844 173.605469 304.09375 C 173.605469 304.878906 173.601562 305.664062 173.601562 306.472656 C 173.601562 308.066406 173.601562 309.660156 173.601562 311.257812 C 173.59375 325.34375 173.609375 339.433594 173.636719 353.519531 C 173.664062 367.175781 173.667969 380.832031 173.65625 394.492188 C 173.640625 409.378906 173.636719 424.265625 173.652344 439.152344 C 173.652344 440.738281 173.65625 442.328125 173.65625 443.917969 C 173.65625 444.699219 173.660156 445.480469 173.660156 446.285156 C 173.664062 451.78125 173.660156 457.277344 173.65625 462.773438 C 173.648438 469.476562 173.65625 476.179688 173.679688 482.882812 C 173.691406 486.300781 173.695312 489.714844 173.683594 493.132812 C 173.675781 496.84375 173.691406 500.550781 173.714844 504.261719 C 173.707031 505.332031 173.699219 506.40625 173.691406 507.511719 C 173.78125 516.292969 175.769531 524.054688 181.882812 530.617188 C 188.484375 536.363281 195.9375 539.878906 204.726562 539.890625 C 206.539062 539.902344 206.539062 539.902344 208.390625 539.910156 C 209.722656 539.90625 211.054688 539.90625 212.390625 539.902344 C 213.8125 539.90625 215.234375 539.910156 216.65625 539.914062 C 220.5625 539.925781 224.46875 539.925781 228.371094 539.921875 C 232.585938 539.921875 236.800781 539.933594 241.011719 539.941406 C 249.265625 539.957031 257.519531 539.964844 265.773438 539.964844 C 272.484375 539.964844 279.195312 539.96875 285.90625 539.976562 C 304.933594 539.992188 323.960938 540 342.988281 540 C 344.015625 540 345.042969 540 346.097656 540 C 347.125 540 348.152344 540 349.210938 540 C 365.851562 539.996094 382.492188 540.015625 399.132812 540.042969 C 416.222656 540.070312 433.3125 540.082031 450.402344 540.082031 C 459.996094 540.078125 469.589844 540.085938 479.183594 540.105469 C 487.351562 540.121094 495.523438 540.125 503.691406 540.113281 C 507.859375 540.109375 512.023438 540.109375 516.191406 540.125 C 520.007812 540.140625 523.828125 540.136719 527.644531 540.121094 C 529.023438 540.117188 530.398438 540.121094 531.777344 540.128906 C 542.765625 540.210938 552.101562 538.960938 560.277344 531.105469 C 568.410156 522.347656 569.769531 515.453125 569.738281 503.691406 C 569.742188 501.953125 569.742188 501.953125 569.75 500.183594 C 569.761719 496.984375 569.761719 493.789062 569.757812 490.589844 C 569.757812 487.132812 569.769531 483.679688 569.777344 480.226562 C 569.792969 473.464844 569.800781 466.699219 569.800781 459.9375 C 569.800781 454.441406 569.804688 448.941406 569.8125 443.445312 C 569.828125 427.847656 569.835938 412.253906 569.835938 396.660156 C 569.835938 395.820312 569.835938 394.980469 569.835938 394.113281 C 569.835938 392.851562 569.835938 392.851562 569.835938 391.5625 C 569.832031 377.929688 569.851562 364.292969 569.878906 350.65625 C 569.90625 336.648438 569.917969 322.640625 569.917969 308.632812 C 569.914062 300.769531 569.921875 292.910156 569.941406 285.046875 C 569.957031 278.355469 569.960938 271.664062 569.949219 264.96875 C 569.945312 261.554688 569.941406 258.144531 569.960938 254.730469 C 569.976562 251.027344 569.964844 247.324219 569.949219 243.617188 C 569.964844 242.007812 569.964844 242.007812 569.980469 240.367188 C 569.898438 231.042969 567.304688 224.390625 560.9375 217.574219 C 551.878906 209.125 541.972656 209.023438 530.132812 209.042969 C 528.707031 209.039062 527.285156 209.035156 525.863281 209.027344 C 521.960938 209.015625 518.0625 209.015625 514.164062 209.015625 C 509.953125 209.011719 505.742188 209 501.535156 208.988281 C 492.335938 208.96875 483.132812 208.960938 473.933594 208.957031 C 468.1875 208.953125 462.441406 208.945312 456.695312 208.941406 C 440.773438 208.921875 424.855469 208.90625 408.933594 208.902344 C 407.40625 208.902344 407.40625 208.902344 405.847656 208.902344 C 403.785156 208.902344 401.722656 208.902344 399.65625 208.902344 C 398.632812 208.902344 397.609375 208.902344 396.554688 208.902344 C 395.527344 208.902344 394.5 208.902344 393.445312 208.902344 C 376.824219 208.898438 360.199219 208.871094 343.578125 208.835938 C 326.503906 208.800781 309.425781 208.78125 292.351562 208.78125 C 282.765625 208.78125 273.183594 208.773438 263.597656 208.746094 C 255.441406 208.722656 247.28125 208.71875 239.121094 208.730469 C 234.960938 208.738281 230.800781 208.738281 226.636719 208.714844 C 222.824219 208.695312 219.011719 208.699219 215.195312 208.71875 C 213.820312 208.722656 212.445312 208.71875 211.074219 208.703125 C 198.8125 208.589844 189.589844 211.03125 180.820312 219.871094 Z M 180.820312 219.871094 " fill-opacity="1" fill-rule="nonzero"/><path fill="#3f6fb5" d="M 592.074219 285.535156 C 597.832031 285.464844 603.59375 285.414062 609.351562 285.382812 C 611.308594 285.367188 613.265625 285.347656 615.222656 285.324219 C 618.046875 285.289062 620.867188 285.273438 623.691406 285.261719 C 624.558594 285.246094 625.425781 285.230469 626.316406 285.214844 C 635.015625 285.214844 642.28125 287.796875 648.542969 294.007812 C 652.878906 299.960938 655.242188 304.875 655.257812 312.25 C 655.261719 313.285156 655.265625 314.320312 655.269531 315.382812 C 655.269531 317.089844 655.269531 317.089844 655.269531 318.828125 C 655.273438 320.035156 655.277344 321.242188 655.28125 322.484375 C 655.289062 325.839844 655.292969 329.191406 655.296875 332.546875 C 655.300781 336.160156 655.308594 339.777344 655.316406 343.394531 C 655.335938 352.128906 655.34375 360.863281 655.351562 369.59375 C 655.355469 373.710938 655.363281 377.824219 655.367188 381.9375 C 655.382812 395.613281 655.398438 409.289062 655.402344 422.96875 C 655.40625 426.515625 655.40625 430.066406 655.410156 433.613281 C 655.410156 434.496094 655.410156 435.378906 655.410156 436.285156 C 655.417969 450.574219 655.441406 464.859375 655.472656 479.144531 C 655.503906 493.816406 655.519531 508.488281 655.523438 523.15625 C 655.527344 531.394531 655.535156 539.628906 655.558594 547.863281 C 655.578125 554.878906 655.585938 561.894531 655.578125 568.90625 C 655.574219 572.484375 655.574219 576.0625 655.59375 579.636719 C 655.613281 583.523438 655.601562 587.402344 655.589844 591.289062 C 655.601562 592.410156 655.609375 593.535156 655.621094 594.691406 C 655.539062 605.496094 652.515625 612.664062 645.074219 620.460938 C 639.429688 625.671875 634.1875 627.289062 626.613281 627.308594 C 625.382812 627.316406 624.15625 627.320312 622.894531 627.324219 C 621.527344 627.328125 620.164062 627.328125 618.796875 627.328125 C 617.347656 627.332031 615.902344 627.339844 614.453125 627.34375 C 610.46875 627.355469 606.484375 627.363281 602.5 627.371094 C 599.082031 627.375 595.667969 627.386719 592.25 627.394531 C 580.996094 627.425781 569.738281 627.445312 558.484375 627.464844 C 555.550781 627.46875 552.621094 627.472656 549.691406 627.476562 C 531.488281 627.507812 513.289062 627.53125 495.085938 627.546875 C 490.871094 627.550781 486.65625 627.554688 482.441406 627.558594 C 480.867188 627.558594 480.867188 627.558594 479.265625 627.5625 C 462.292969 627.578125 445.320312 627.617188 428.347656 627.664062 C 410.921875 627.714844 393.492188 627.742188 376.066406 627.746094 C 366.285156 627.75 356.5 627.765625 346.714844 627.804688 C 338.382812 627.835938 330.050781 627.847656 321.71875 627.835938 C 317.46875 627.832031 313.21875 627.835938 308.96875 627.863281 C 305.074219 627.890625 301.179688 627.890625 297.28125 627.867188 C 295.878906 627.863281 294.472656 627.871094 293.066406 627.886719 C 283.261719 628 275.820312 626.429688 268.242188 619.828125 C 262.140625 613.46875 259.414062 605.957031 259.417969 597.210938 C 259.4375 596.351562 259.457031 595.496094 259.476562 594.613281 C 259.480469 593.707031 259.484375 592.800781 259.492188 591.867188 C 259.511719 589.007812 259.558594 586.152344 259.609375 583.296875 C 259.625 581.34375 259.644531 579.390625 259.660156 577.441406 C 259.699219 572.6875 259.765625 567.933594 259.84375 563.179688 C 260.445312 563.179688 261.046875 563.175781 261.664062 563.175781 C 297.316406 563.121094 332.964844 563.050781 368.613281 562.964844 C 372.898438 562.953125 377.179688 562.941406 381.464844 562.933594 C 382.742188 562.929688 382.742188 562.929688 384.046875 562.925781 C 397.84375 562.890625 411.636719 562.867188 425.433594 562.847656 C 439.597656 562.828125 453.757812 562.796875 467.921875 562.757812 C 476.652344 562.730469 485.386719 562.714844 494.121094 562.707031 C 500.117188 562.703125 506.113281 562.6875 512.105469 562.664062 C 515.5625 562.652344 519.015625 562.644531 522.472656 562.648438 C 526.226562 562.652344 529.980469 562.632812 533.738281 562.613281 C 534.816406 562.617188 535.898438 562.621094 537.011719 562.625 C 551.671875 562.5 564.273438 558.035156 575.132812 548.121094 C 575.753906 548.121094 576.375 548.121094 577.015625 548.121094 C 577.269531 547.566406 577.527344 547.015625 577.789062 546.449219 C 578.875 544.394531 580.078125 542.792969 581.542969 541.003906 C 588.621094 531.726562 591.417969 521.65625 591.394531 510.195312 C 591.402344 508.753906 591.402344 508.753906 591.410156 507.28125 C 591.425781 504.0625 591.429688 500.84375 591.433594 497.625 C 591.441406 495.316406 591.449219 493.003906 591.460938 490.695312 C 591.480469 485.726562 591.496094 480.757812 591.503906 475.789062 C 591.519531 468.605469 591.542969 461.417969 591.570312 454.234375 C 591.613281 442.578125 591.648438 430.921875 591.675781 419.261719 C 591.703125 407.941406 591.738281 396.621094 591.773438 385.300781 C 591.777344 384.601562 591.78125 383.902344 591.78125 383.183594 C 591.792969 379.679688 591.804688 376.175781 591.816406 372.671875 C 591.914062 343.628906 592 314.582031 592.074219 285.535156 Z M 592.074219 285.535156 " fill-opacity="1" fill-rule="nonzero"/><path fill="#fbfdfe" d="M 213.074219 208.71875 C 214.503906 208.714844 215.929688 208.707031 217.359375 208.699219 C 221.253906 208.683594 225.148438 208.695312 229.042969 208.714844 C 233.253906 208.730469 237.464844 208.714844 241.675781 208.707031 C 249.914062 208.695312 258.152344 208.703125 266.390625 208.726562 C 275.988281 208.746094 285.585938 208.746094 295.1875 208.742188 C 312.316406 208.738281 329.445312 208.757812 346.578125 208.792969 C 363.1875 208.824219 379.800781 208.835938 396.410156 208.832031 C 414.515625 208.824219 432.617188 208.828125 450.722656 208.84375 C 452.160156 208.847656 452.160156 208.847656 453.625 208.847656 C 455.546875 208.851562 457.472656 208.851562 459.394531 208.855469 C 466.082031 208.859375 472.769531 208.859375 479.457031 208.859375 C 487.605469 208.859375 495.757812 208.867188 503.910156 208.890625 C 508.066406 208.902344 512.222656 208.90625 516.378906 208.902344 C 520.1875 208.898438 523.996094 208.90625 527.804688 208.925781 C 529.175781 208.929688 530.550781 208.929688 531.925781 208.921875 C 544.496094 208.875 553.449219 210.464844 562.636719 219.339844 C 570.433594 227.730469 569.867188 237.097656 569.761719 247.859375 C 569.757812 249.410156 569.753906 250.960938 569.75 252.511719 C 569.738281 256.574219 569.710938 260.632812 569.679688 264.691406 C 569.652344 268.84375 569.636719 272.996094 569.625 277.144531 C 569.59375 285.277344 569.546875 293.40625 569.484375 301.535156 C 569.175781 301.535156 568.863281 301.535156 568.542969 301.535156 C 568.542969 296.878906 568.542969 292.21875 568.542969 287.417969 C 438.71875 287.417969 308.898438 287.417969 175.136719 287.417969 C 175.136719 292.386719 175.136719 297.355469 175.136719 302.476562 C 174.828125 302.476562 174.515625 302.476562 174.199219 302.476562 C 174.089844 293.4375 174.003906 284.394531 173.953125 275.355469 C 173.929688 271.15625 173.894531 266.957031 173.84375 262.757812 C 173.792969 258.699219 173.761719 254.640625 173.75 250.582031 C 173.742188 249.042969 173.726562 247.5 173.699219 245.957031 C 173.535156 235.679688 174.589844 228.351562 180.820312 219.871094 C 190.226562 210.390625 200.089844 208.59375 213.074219 208.71875 Z M 213.074219 208.71875 " fill-opacity="1" fill-rule="nonzero"/><path fill="#193769" d="M 258.121094 353.296875 C 260.367188 354.671875 262.515625 356.136719 264.667969 357.652344 C 266.332031 358.78125 268 359.910156 269.671875 361.039062 C 270.53125 361.625 271.386719 362.214844 272.273438 362.820312 C 276.5625 365.714844 280.9375 368.476562 285.3125 371.242188 C 286.171875 371.785156 287.03125 372.332031 287.914062 372.894531 C 292.140625 375.582031 296.378906 378.257812 300.625 380.914062 C 301.824219 381.664062 301.824219 381.664062 303.050781 382.433594 C 304.539062 383.367188 306.03125 384.296875 307.523438 385.222656 C 319.835938 392.9375 319.835938 392.9375 322.902344 397.535156 C 323.347656 402.347656 323.007812 404.996094 320.078125 408.828125 C 317.46875 410.929688 314.675781 412.710938 311.855469 414.515625 C 311.039062 415.050781 310.21875 415.585938 309.375 416.136719 C 306.753906 417.847656 304.121094 419.542969 301.488281 421.238281 C 299.761719 422.363281 298.035156 423.484375 296.308594 424.609375 C 292.941406 426.800781 289.574219 428.988281 286.199219 431.171875 C 280.90625 434.613281 275.652344 438.109375 270.40625 441.625 C 255.144531 451.820312 255.144531 451.820312 249.492188 451.179688 C 245.769531 449.175781 243.375 447.660156 241.960938 443.652344 C 241.777344 440.910156 241.695312 438.261719 241.703125 435.523438 C 241.699219 434.703125 241.691406 433.882812 241.6875 433.039062 C 241.675781 430.332031 241.675781 427.625 241.679688 424.921875 C 241.675781 423.039062 241.671875 421.15625 241.664062 419.273438 C 241.660156 415.328125 241.660156 411.382812 241.664062 407.4375 C 241.667969 402.378906 241.652344 397.324219 241.632812 392.269531 C 241.617188 388.382812 241.617188 384.496094 241.621094 380.609375 C 241.621094 378.742188 241.613281 376.878906 241.605469 375.015625 C 241.59375 372.410156 241.601562 369.804688 241.609375 367.195312 C 241.605469 366.425781 241.597656 365.660156 241.589844 364.867188 C 241.628906 360.539062 242.027344 357.785156 244.785156 354.242188 C 248.570312 351.296875 253.890625 351.355469 258.121094 353.296875 Z M 258.121094 353.296875 " fill-opacity="1" fill-rule="nonzero"/><path fill="#183668" d="M 365.15625 349.402344 C 365.820312 349.398438 366.480469 349.398438 367.167969 349.394531 C 369.398438 349.386719 371.628906 349.386719 373.859375 349.382812 C 375.453125 349.378906 377.050781 349.375 378.648438 349.371094 C 382.992188 349.355469 387.332031 349.351562 391.675781 349.347656 C 394.386719 349.34375 397.097656 349.339844 399.808594 349.335938 C 408.292969 349.324219 416.773438 349.3125 425.257812 349.308594 C 435.054688 349.304688 444.847656 349.289062 454.644531 349.261719 C 462.214844 349.242188 469.785156 349.230469 477.355469 349.230469 C 481.875 349.230469 486.398438 349.222656 490.921875 349.207031 C 495.175781 349.191406 499.429688 349.191406 503.679688 349.199219 C 505.242188 349.199219 506.804688 349.195312 508.363281 349.1875 C 510.496094 349.175781 512.625 349.179688 514.757812 349.1875 C 515.949219 349.1875 517.144531 349.1875 518.371094 349.183594 C 523.105469 349.71875 525.382812 351.375 528.367188 355.003906 C 530.144531 358.363281 530.578125 359.921875 529.957031 363.652344 C 527.753906 367.8125 525.710938 370.089844 521.484375 372.121094 C 518.378906 372.480469 518.378906 372.480469 514.777344 372.488281 C 514.113281 372.492188 513.445312 372.496094 512.761719 372.503906 C 510.539062 372.515625 508.316406 372.511719 506.09375 372.503906 C 504.5 372.507812 502.902344 372.515625 501.308594 372.523438 C 496.976562 372.539062 492.648438 372.539062 488.316406 372.535156 C 484.699219 372.53125 481.085938 372.535156 477.46875 372.542969 C 468.9375 372.554688 460.40625 372.554688 451.875 372.542969 C 443.078125 372.53125 434.277344 372.546875 425.480469 372.570312 C 417.921875 372.589844 410.367188 372.597656 402.808594 372.59375 C 398.296875 372.589844 393.785156 372.589844 389.273438 372.605469 C 385.027344 372.621094 380.785156 372.617188 376.542969 372.601562 C 374.984375 372.597656 373.429688 372.601562 371.875 372.609375 C 369.746094 372.621094 367.621094 372.609375 365.492188 372.59375 C 363.710938 372.59375 363.710938 372.59375 361.890625 372.59375 C 358.046875 372.03125 356.027344 370.777344 353.019531 368.359375 C 350.804688 365.144531 350.195312 363.328125 350.195312 359.417969 C 351.378906 355.273438 352.804688 353.511719 355.839844 350.476562 C 359.125 349.382812 361.691406 349.410156 365.15625 349.402344 Z M 365.15625 349.402344 " fill-opacity="1" fill-rule="nonzero"/><path fill="#173467" d="M 363.445312 445.382812 C 365.273438 445.367188 365.273438 445.367188 367.144531 445.355469 C 368.503906 445.347656 369.863281 445.34375 371.222656 445.335938 C 372.652344 445.328125 374.078125 445.320312 375.503906 445.308594 C 380.199219 445.28125 384.894531 445.261719 389.585938 445.242188 C 390.386719 445.238281 391.183594 445.238281 392.007812 445.234375 C 399.539062 445.203125 407.066406 445.179688 414.597656 445.164062 C 424.230469 445.144531 433.863281 445.105469 443.496094 445.039062 C 450.269531 444.992188 457.042969 444.972656 463.8125 444.964844 C 467.859375 444.960938 471.902344 444.945312 475.949219 444.90625 C 479.757812 444.871094 483.5625 444.863281 487.371094 444.878906 C 488.765625 444.878906 490.160156 444.867188 491.558594 444.847656 C 503.398438 444.6875 503.398438 444.6875 507.730469 448.246094 C 509.515625 450.09375 510.171875 451.117188 511 453.59375 C 510.816406 457.667969 510.601562 460.664062 508.015625 463.945312 C 504.324219 467.292969 501.707031 467.300781 496.894531 467.320312 C 495.082031 467.328125 495.082031 467.328125 493.234375 467.339844 C 491.894531 467.34375 490.554688 467.34375 489.214844 467.347656 C 487.804688 467.351562 486.394531 467.359375 484.984375 467.367188 C 480.351562 467.386719 475.71875 467.394531 471.085938 467.40625 C 469.492188 467.410156 467.894531 467.414062 466.300781 467.417969 C 458.808594 467.433594 451.316406 467.449219 443.824219 467.457031 C 435.175781 467.464844 426.527344 467.488281 417.878906 467.527344 C 411.191406 467.554688 404.507812 467.570312 397.820312 467.574219 C 393.828125 467.574219 389.835938 467.582031 385.84375 467.605469 C 382.085938 467.628906 378.332031 467.632812 374.574219 467.625 C 373.195312 467.621094 371.820312 467.628906 370.441406 467.640625 C 368.558594 467.660156 366.675781 467.648438 364.792969 467.640625 C 363.210938 467.644531 363.210938 467.644531 361.601562 467.644531 C 357.9375 467.066406 355.90625 465.707031 353.019531 463.414062 C 350.496094 459.628906 350.371094 456.570312 351.136719 452.121094 C 354.214844 446.59375 357.398438 445.417969 363.445312 445.382812 Z M 363.445312 445.382812 " fill-opacity="1" fill-rule="nonzero"/><path fill="#1a386a" d="M 363.535156 397.394531 C 364.566406 397.390625 365.597656 397.382812 366.660156 397.375 C 367.796875 397.371094 368.933594 397.371094 370.105469 397.367188 C 371.898438 397.359375 371.898438 397.359375 373.722656 397.347656 C 377.691406 397.328125 381.65625 397.320312 385.621094 397.308594 C 386.984375 397.304688 388.351562 397.300781 389.714844 397.296875 C 396.128906 397.28125 402.542969 397.265625 408.957031 397.257812 C 416.359375 397.25 423.765625 397.226562 431.167969 397.1875 C 436.886719 397.160156 442.609375 397.144531 448.332031 397.140625 C 451.75 397.140625 455.167969 397.132812 458.585938 397.109375 C 462.398438 397.082031 466.214844 397.085938 470.027344 397.09375 C 471.15625 397.078125 472.289062 397.066406 473.453125 397.054688 C 480.742188 397.101562 484.109375 397.921875 489.367188 403.003906 C 490.925781 406.035156 490.78125 408.292969 490.429688 411.652344 C 488.851562 415.121094 487.066406 417.164062 483.839844 419.179688 C 480.984375 420.132812 479.054688 420.246094 476.070312 420.261719 C 475.042969 420.265625 474.019531 420.273438 472.964844 420.28125 C 471.839844 420.285156 470.714844 420.285156 469.554688 420.289062 C 467.777344 420.296875 467.777344 420.296875 465.964844 420.308594 C 462.035156 420.328125 458.105469 420.335938 454.175781 420.347656 C 452.820312 420.351562 451.46875 420.355469 450.113281 420.359375 C 443.753906 420.375 437.394531 420.390625 431.035156 420.398438 C 423.695312 420.40625 416.359375 420.429688 409.019531 420.46875 C 403.347656 420.496094 397.671875 420.511719 392 420.515625 C 388.609375 420.515625 385.222656 420.523438 381.835938 420.550781 C 378.054688 420.574219 374.273438 420.570312 370.492188 420.566406 C 369.375 420.578125 368.253906 420.589844 367.101562 420.601562 C 361.179688 420.5625 357.492188 420.394531 353.019531 416.359375 C 350.421875 413.429688 349.972656 411.222656 350.136719 407.417969 C 350.617188 404.136719 351.359375 402.5 353.902344 400.359375 C 357.589844 397.949219 359.1875 397.414062 363.535156 397.394531 Z M 363.535156 397.394531 " fill-opacity="1" fill-rule="nonzero"/><path fill="#cbced6" d="M 314.464844 236.335938 C 318.167969 238.277344 320.511719 240.207031 321.960938 244.125 C 322.59375 248.847656 322.484375 252.429688 320.429688 256.773438 C 316.820312 260.664062 313.566406 262.144531 308.3125 262.417969 C 304.089844 262.261719 301.644531 261.070312 298.429688 258.242188 C 295.058594 254.535156 295.082031 250.5 295.210938 245.691406 C 295.84375 241.699219 297.308594 240.203125 300.3125 237.535156 C 304.738281 234.910156 309.601562 234.609375 314.464844 236.335938 Z M 314.464844 236.335938 " fill-opacity="1" fill-rule="nonzero"/><path fill="#cbcdd6" d="M 223.113281 236.332031 C 226.855469 238.300781 229.230469 240.148438 230.667969 244.125 C 231.234375 248.296875 231.664062 252.476562 229.742188 256.339844 C 227.058594 259.699219 224.214844 261.71875 219.96875 262.324219 C 214.578125 262.40625 211.3125 262.007812 207.136719 258.242188 C 204.03125 254.722656 203.671875 251.105469 203.789062 246.550781 C 204.726562 242.230469 207.550781 239.34375 210.902344 236.59375 C 215.015625 235.226562 219.007812 234.835938 223.113281 236.332031 Z M 223.113281 236.332031 " fill-opacity="1" fill-rule="nonzero"/><path fill="#cacdd6" d="M 267.371094 235.65625 C 271.90625 237.878906 274.527344 240.550781 276.785156 245.066406 C 277.589844 249.179688 277.132812 251.902344 275.253906 255.652344 C 272.34375 259.023438 269.855469 261.570312 265.324219 262.367188 C 260.230469 262.625 257.21875 261.640625 253.253906 258.242188 C 250.160156 255.359375 249.753906 252.191406 249.429688 248.121094 C 249.519531 244.90625 250.488281 242.976562 252.3125 240.359375 C 257.265625 235.890625 260.800781 234.867188 267.371094 235.65625 Z M 267.371094 235.65625 " fill-opacity="1" fill-rule="nonzero"/><path fill="#3f6fb5" d="M 612.226562 141.835938 L 607.398438 146.664062 L 600.621094 145.914062 C 598.730469 145.699219 596.816406 145.597656 594.925781 145.597656 C 589.214844 145.597656 583.597656 146.523438 578.238281 148.378906 C 575.480469 149.324219 572.839844 150.503906 570.300781 151.902344 L 639.867188 221.511719 C 642.402344 216.886719 644.183594 211.988281 645.203125 206.8125 C 646.226562 201.640625 646.445312 196.429688 645.855469 191.191406 L 645.109375 184.414062 L 649.933594 179.585938 L 676.296875 153.222656 L 638.566406 115.496094 Z M 612.226562 141.835938 " fill-opacity="1" fill-rule="nonzero"/><path fill="#1a386a" d="M 691.722656 148.613281 L 643.175781 100.066406 C 641.898438 98.785156 640.222656 98.15625 638.546875 98.15625 C 636.871094 98.15625 635.199219 98.785156 633.917969 100.066406 L 602.175781 131.828125 C 599.773438 131.550781 597.351562 131.433594 594.925781 131.433594 C 580.503906 131.433594 566.082031 136.179688 554.242188 145.679688 C 553.882812 145.964844 553.558594 146.289062 553.269531 146.644531 C 552.976562 147 552.726562 147.382812 552.515625 147.792969 C 552.308594 148.199219 552.140625 148.628906 552.023438 149.070312 C 551.902344 149.515625 551.828125 149.964844 551.804688 150.425781 C 551.777344 150.886719 551.800781 151.339844 551.871094 151.796875 C 551.945312 152.25 552.0625 152.691406 552.226562 153.121094 C 552.390625 153.550781 552.597656 153.957031 552.847656 154.34375 C 553.097656 154.730469 553.386719 155.085938 553.710938 155.410156 L 589.507812 191.210938 L 547.070312 233.609375 C 546.535156 234.140625 546.230469 234.785156 546.164062 235.539062 L 545.496094 242.867188 C 545.316406 244.722656 546.792969 246.296875 548.625 246.296875 C 548.726562 246.296875 548.824219 246.296875 548.921875 246.277344 L 556.25 245.605469 C 556.980469 245.546875 557.671875 245.214844 558.183594 244.699219 L 600.621094 202.261719 L 636.417969 238.0625 C 637.699219 239.34375 639.375 239.972656 641.050781 239.972656 C 642.960938 239.972656 644.851562 239.144531 646.152344 237.53125 C 657.246094 223.679688 661.855469 206.339844 659.984375 189.574219 L 691.722656 157.835938 C 694.265625 155.3125 694.265625 151.175781 691.722656 148.613281 Z M 649.933594 179.585938 L 645.109375 184.414062 L 645.855469 191.191406 C 646.445312 196.429688 646.226562 201.640625 645.203125 206.8125 C 644.183594 211.988281 642.402344 216.886719 639.867188 221.511719 L 570.300781 151.902344 C 572.839844 150.503906 575.480469 149.324219 578.238281 148.378906 C 583.597656 146.523438 589.214844 145.597656 594.925781 145.597656 C 596.816406 145.597656 598.730469 145.699219 600.621094 145.914062 L 607.398438 146.664062 L 638.566406 115.496094 L 676.296875 153.222656 Z M 649.933594 179.585938 " fill-opacity="1" fill-rule="nonzero"/></svg>